# xmcd
#
# Track frame offsets:
#	150
#	14521
#	38200
#	62116
#	83282
#	101885
#	117634
#	143406
#	159307
#	176915
#	194290
#	215534
#	230348
#	242956
#	286286
#
# Disc length: 4120 seconds
# Revision: 3
# Processed by: cddbd v1.5.2PL0 Copyright (c) Steve Scherf et al.
# Submitted via: dBpowerAMP V12.0
#
DISCID=d210160f
DTITLE=Downchild Blues Band - Good Times Guaranteed
DYEAR=1994
DGENRE=Blues
TTITLE0=Good Times Guaranteed
TTITLE1=I'm Mixed Up
TTITLE2=Wednesday Night Blues
TTITLE3=Dusty Road
TTITLE4=Hook, Line, and Sinker
TTITLE5=I Can't Stand It
TTITLE6=Big Hill
TTITLE7=Annie's Got A Sister
TTITLE8=Master Chef
TTITLE9=I Am Mister Downchild
TTITLE10=Mr. Confused
TTITLE11=I'm Finished
TTITLE12=SRV - Sting's Swing
TTITLE13=SRV - Drivin' South
TTITLE14=SRV - Ask Me No Questions
EXTD=
EXTT0=
EXTT1=
EXTT2=
EXTT3=
EXTT4=
EXTT5=
EXTT6=
EXTT7=
EXTT8=
EXTT9=
EXTT10=
EXTT11=
EXTT12=
EXTT13=
EXTT14=
PLAYORDER=
